<svg width="505" height="795" viewBox="0 0 505 795" fill="none" xmlns="http://www.w3.org/2000/svg">
<path d="M0 30C0 13.4314 13.4315 0 30 0H475C491.569 0 505 13.4315 505 30V680C505 743.513 453.513 795 390 795H30C13.4314 795 0 781.569 0 765V30Z" fill="#7ECBE0"/>
<path d="M26 62C26 56.4772 30.4772 52 36 52H472C477.523 52 482 56.4772 482 62V356C482 383.614 459.614 406 432 406H36C30.4771 406 26 401.523 26 396V62Z" fill="#1E1E1E"/>
<rect x="89" y="455" width="66" height="182" rx="8" fill="white"/>
<rect x="31" y="579" width="66" height="182" rx="8" transform="rotate(-90 31 579)" fill="white"/>
<path d="M42 544.75V536H49.5H57V537.25V538.5H58.25H59.5V542.25V546H57H54.5V547.25V548.5H55.75H57V549.75V551H58.25H59.5V552.25V553.5H55.75H52V552.25V551H50.75H49.5V549.75V548.5H48.25H47V551V553.5H44.5H42V544.75ZM54.5 541V538.5H50.75H47V542.25V546H49.5H52V544.75V543.5H53.25H54.5V541ZM64.5 542.25V541H70.75H77V542.25V543.5H78.25H79.5V546V548.5H73.25H67V549.75V551H72H77V552.25V553.5H70.75H64.5V552.25V551H63.25H62V547.25V543.5H63.25H64.5V542.25ZM74.5 544.75V543.5H70.75H67V544.75V546H70.75H74.5V544.75ZM84.5 542.25V541H92H99.5V547.25V553.5H98.25H97V554.75V556H90.75H84.5V554.75V553.5H89.5H94.5V552.25V551H89.5H84.5V549.75V548.5H83.25H82V546V543.5H83.25H84.5V542.25ZM94.5 546V543.5H90.75H87V546V548.5H90.75H94.5V546ZM107 542.25V541H110.75H114.5V546V551H117H119.5V552.25V553.5H112H104.5V552.25V551H107H109.5V547.25V543.5H108.25H107V542.25ZM109.5 537.25V536H112H114.5V537.25V538.5H112H109.5V537.25ZM124.5 542.25V541H130.75H137V542.25V543.5H132H127V544.75V546H132H137V547.25V548.5H138.25H139.5V549.75V551H138.25H137V552.25V553.5H129.5H122V552.25V551H128.25H134.5V549.75V548.5H129.5H124.5V547.25V546H123.25H122V544.75V543.5H123.25H124.5V542.25ZM149.5 538.5V536H152H154.5V538.5V541H157H159.5V542.25V543.5H157H154.5V548.5V553.5H152H149.5V548.5V543.5H147H144.5V542.25V541H147H149.5V538.5ZM164.5 542.25V541H170.75H177V542.25V543.5H178.25H179.5V546V548.5H173.25H167V549.75V551H172H177V552.25V553.5H170.75H164.5V552.25V551H163.25H162V547.25V543.5H163.25H164.5V542.25ZM174.5 544.75V543.5H170.75H167V544.75V546H170.75H174.5V544.75ZM184.5 547.25V541H187H189.5V542.25V543.5H190.75H192V542.25V541H195.75H199.5V542.25V543.5H195.75H192V544.75V546H190.75H189.5V549.75V553.5H187H184.5V547.25Z" fill="#1E1E1E"/>
<path d="M40 33.75V25H48.75H57.5V26.25V27.5H51.25H45V30V32.5H50H55V33.75V35H50H45V37.5V40H51.25H57.5V41.25V42.5H48.75H40V33.75ZM62.5 33.75V30H65H67.5V33.75V37.5H70H72.5V33.75V30H75H77.5V33.75V37.5H76.25H75V38.75V40H73.75H72.5V41.25V42.5H70H67.5V41.25V40H66.25H65V38.75V37.5H63.75H62.5V33.75ZM82.5 31.25V30H88.75H95V31.25V32.5H96.25H97.5V35V37.5H91.25H85V38.75V40H90H95V41.25V42.5H88.75H82.5V41.25V40H81.25H80V36.25V32.5H81.25H82.5V31.25ZM92.5 33.75V32.5H88.75H85V33.75V35H88.75H92.5V33.75ZM100 36.25V30H107.5H115V31.25V32.5H116.25H117.5V37.5V42.5H115H112.5V37.5V32.5H108.75H105V37.5V42.5H102.5H100V36.25ZM127.5 27.5V25H130H132.5V27.5V30H135H137.5V31.25V32.5H135H132.5V37.5V42.5H130H127.5V37.5V32.5H125H122.5V31.25V30H125H127.5V27.5ZM142.5 31.25V30H148.75H155V31.25V32.5H150H145V33.75V35H150H155V36.25V37.5H156.25H157.5V38.75V40H156.25H155V41.25V42.5H147.5H140V41.25V40H146.25H152.5V38.75V37.5H147.5H142.5V36.25V35H141.25H140V33.75V32.5H141.25H142.5V31.25ZM182.5 31.25V30H188.75H195V31.25V32.5H196.25H197.5V36.25V40H196.25H195V41.25V42.5H188.75H182.5V41.25V40H181.25H180V36.25V32.5H181.25H182.5V31.25ZM192.5 36.25V32.5H188.75H185V36.25V40H188.75H192.5V36.25ZM210 26.25V25H213.75H217.5V26.25V27.5H215H212.5V28.75V30H215H217.5V31.25V32.5H215H212.5V37.5V42.5H210H207.5V37.5V32.5H205H202.5V31.25V30H205H207.5V28.75V27.5H208.75H210V26.25ZM245 26.25V25H248.75H252.5V26.25V27.5H253.75H255V28.75V30H256.25H257.5V36.25V42.5H255H252.5V40V37.5H248.75H245V40V42.5H242.5H240V36.25V30H241.25H242.5V28.75V27.5H243.75H245V26.25ZM250 28.75V27.5H248.75H247.5V28.75V30H246.25H245V32.5V35H248.75H252.5V32.5V30H251.25H250V28.75ZM265 26.25V25H270H275V26.25V27.5H276.25H277.5V28.75V30H275H272.5V28.75V27.5H270H267.5V28.75V30H266.25H265V33.75V37.5H266.25H267.5V38.75V40H270H272.5V38.75V37.5H275H277.5V38.75V40H276.25H275V41.25V42.5H270H265V41.25V40H263.75H262.5V38.75V37.5H261.25H260V33.75V30H261.25H262.5V28.75V27.5H263.75H265V26.25ZM280 33.75V25H282.5H285V26.25V27.5H286.25H287.5V28.75V30H288.75H290V28.75V27.5H291.25H292.5V26.25V25H295H297.5V33.75V42.5H295H292.5V38.75V35H291.25H290V36.25V37.5H288.75H287.5V36.25V35H286.25H285V38.75V42.5H282.5H280V33.75ZM320 33.75V25H322.5H325V26.25V27.5H326.25H327.5V28.75V30H328.75H330V28.75V27.5H331.25H332.5V26.25V25H335H337.5V33.75V42.5H335H332.5V38.75V35H331.25H330V36.25V37.5H328.75H327.5V36.25V35H326.25H325V38.75V42.5H322.5H320V33.75ZM342.5 26.25V25H350H357.5V26.25V27.5H355H352.5V33.75V40H355H357.5V41.25V42.5H350H342.5V41.25V40H345H347.5V33.75V27.5H345H342.5V26.25ZM362.5 26.25V25H370H377.5V26.25V27.5H375H372.5V35V42.5H370H367.5V35V27.5H365H362.5V26.25ZM380 33.75V25H387.5H395V26.25V27.5H396.25H397.5V30V32.5H396.25H395V33.75V35H396.25H397.5V37.5V40H396.25H395V41.25V42.5H387.5H380V33.75ZM392.5 30V27.5H388.75H385V30V32.5H388.75H392.5V30ZM392.5 37.5V35H388.75H385V37.5V40H388.75H392.5V37.5Z" fill="white"/>
<ellipse cx="3.50972" cy="3.49069" rx="3.50972" ry="3.49069" transform="matrix(-0.551354 -0.83095 0.861065 -0.513719 343.87 727.457)" fill="white"/>
<ellipse cx="3.50972" cy="3.49069" rx="3.50972" ry="3.49069" transform="matrix(-0.589592 -0.804271 0.836112 -0.553405 325.139 741.509)" fill="white"/>
<ellipse cx="3.50972" cy="3.49069" rx="3.50972" ry="3.49069" transform="matrix(-0.551354 -0.83095 0.861065 -0.513719 366.208 712.757)" fill="white"/>
<path d="M387.682 690.43C389.342 689.44 391.554 689.943 392.623 691.553C393.691 693.164 393.212 695.273 391.552 696.263C389.892 697.253 387.68 696.75 386.611 695.14C385.543 693.529 386.022 691.42 387.682 690.43Z" fill="white"/>
<path d="M411.211 675.791C412.871 674.801 415.083 675.304 416.152 676.914C417.221 678.525 416.741 680.634 415.081 681.624C413.421 682.614 411.209 682.112 410.141 680.501C409.072 678.89 409.551 676.782 411.211 675.791Z" fill="white"/>
<ellipse cx="3.50972" cy="3.49069" rx="3.50972" ry="3.49069" transform="matrix(-0.551354 -0.83095 0.861065 -0.513719 364.293 750.134)" fill="white"/>
<ellipse cx="3.50972" cy="3.49069" rx="3.50972" ry="3.49069" transform="matrix(-0.589592 -0.804271 0.836112 -0.553405 344.139 762.509)" fill="white"/>
<ellipse cx="3.50972" cy="3.49069" rx="3.50972" ry="3.49069" transform="matrix(-0.551354 -0.83095 0.861065 -0.513719 386.632 735.434)" fill="white"/>
<path d="M408.105 713.107C409.765 712.117 411.978 712.62 413.046 714.231C414.115 715.841 413.636 717.95 411.976 718.94C410.316 719.931 408.104 719.428 407.035 717.817C405.966 716.206 406.445 714.098 408.105 713.107Z" fill="white"/>
<path d="M431.635 698.468C433.295 697.478 435.507 697.981 436.575 699.592C437.644 701.202 437.165 703.311 435.505 704.301C433.845 705.292 431.633 704.789 430.564 703.178C429.495 701.567 429.975 699.459 431.635 698.468Z" fill="white"/>
<ellipse cx="3.50972" cy="3.49069" rx="3.50972" ry="3.49069" transform="matrix(-0.551354 -0.83095 0.861065 -0.513719 384.192 772.134)" fill="white"/>
<ellipse cx="3.50972" cy="3.49069" rx="3.50972" ry="3.49069" transform="matrix(-0.551354 -0.83095 0.861065 -0.513719 406.53 757.434)" fill="white"/>
<path d="M428.004 735.107C429.664 734.117 431.876 734.62 432.945 736.231C434.014 737.841 433.535 739.95 431.875 740.94C430.215 741.931 428.003 741.428 426.934 739.817C425.865 738.206 426.344 736.098 428.004 735.107Z" fill="white"/>
<path d="M451.533 720.468C453.193 719.478 455.406 719.981 456.474 721.592C457.543 723.202 457.064 725.311 455.404 726.301C453.744 727.292 451.532 726.789 450.463 725.178C449.394 723.567 449.873 721.459 451.533 720.468Z" fill="white"/>
<ellipse cx="3.50972" cy="3.49069" rx="3.50972" ry="3.49069" transform="matrix(-0.50946 -0.857275 0.885486 -0.470376 432.576 670.302)" fill="white"/>
<ellipse cx="3.50972" cy="3.49069" rx="3.50972" ry="3.49069" transform="matrix(-0.50946 -0.857275 0.885486 -0.470376 449.576 691.302)" fill="white"/>
</svg>
